<svg id="visual" viewBox="0 0 1366 768" width="1366" height="768" xmlns="http://www.w3.org/2000/svg" xmlns:xlink="http://www.w3.org/1999/xlink" version="1.1"><rect x="0" y="0" width="1366" height="768" fill="#85a7e0"></rect><defs><linearGradient id="grad1_0" x1="43.8%" y1="100%" x2="100%" y2="0%"><stop offset="14.427083333333334%" stop-color="#668bcc" stop-opacity="1"></stop><stop offset="85.57291666666667%" stop-color="#668bcc" stop-opacity="1"></stop></linearGradient></defs><defs><linearGradient id="grad1_1" x1="43.8%" y1="100%" x2="100%" y2="0%"><stop offset="14.427083333333334%" stop-color="#668bcc" stop-opacity="1"></stop><stop offset="85.57291666666667%" stop-color="#7599d6" stop-opacity="1"></stop></linearGradient></defs><defs><linearGradient id="grad1_2" x1="43.8%" y1="100%" x2="100%" y2="0%"><stop offset="14.427083333333334%" stop-color="#85a7e0" stop-opacity="1"></stop><stop offset="85.57291666666667%" stop-color="#7599d6" stop-opacity="1"></stop></linearGradient></defs><defs><linearGradient id="grad2_0" x1="0%" y1="100%" x2="56.2%" y2="0%"><stop offset="14.427083333333334%" stop-color="#668bcc" stop-opacity="1"></stop><stop offset="85.57291666666667%" stop-color="#668bcc" stop-opacity="1"></stop></linearGradient></defs><defs><linearGradient id="grad2_1" x1="0%" y1="100%" x2="56.2%" y2="0%"><stop offset="14.427083333333334%" stop-color="#7599d6" stop-opacity="1"></stop><stop offset="85.57291666666667%" stop-color="#668bcc" stop-opacity="1"></stop></linearGradient></defs><defs><linearGradient id="grad2_2" x1="0%" y1="100%" x2="56.2%" y2="0%"><stop offset="14.427083333333334%" stop-color="#7599d6" stop-opacity="1"></stop><stop offset="85.57291666666667%" stop-color="#85a7e0" stop-opacity="1"></stop></linearGradient></defs><g transform="translate(1366, 768)"><path d="M-691.2 0C-684.1 -93.1 -676.9 -186.3 -638.6 -264.5C-600.2 -342.7 -530.6 -406.1 -462.4 -462.4C-394.3 -518.8 -327.5 -568.2 -250.7 -605.1C-173.8 -642.1 -86.9 -666.7 0 -691.2L0 0Z" fill="#7da0db"></path><path d="M-460.8 0C-456 -62.1 -451.3 -124.2 -425.7 -176.3C-400.1 -228.5 -353.8 -270.7 -308.3 -308.3C-262.8 -345.9 -218.3 -378.8 -167.1 -403.4C-115.9 -428.1 -57.9 -444.4 0 -460.8L0 0Z" fill="#6e92d1"></path><path d="M-230.4 0C-228 -31 -225.6 -62.1 -212.9 -88.2C-200.1 -114.2 -176.9 -135.4 -154.1 -154.1C-131.4 -172.9 -109.2 -189.4 -83.6 -201.7C-57.9 -214 -29 -222.2 0 -230.4L0 0Z" fill="#668bcc"></path></g><g transform="translate(0, 0)"><path d="M691.2 0C675.3 96.4 659.3 192.8 602.4 249.5C545.4 306.2 447.4 323.3 391.7 391.7C336.1 460.2 322.7 580.1 264.5 638.6C206.3 697.1 103.1 694.1 0 691.2L0 0Z" fill="#7da0db"></path><path d="M460.8 0C450.2 64.3 439.6 128.5 401.6 166.3C363.6 204.2 298.3 215.5 261.2 261.2C224 306.8 215.2 386.7 176.3 425.7C137.5 464.7 68.8 462.8 0 460.8L0 0Z" fill="#6e92d1"></path><path d="M230.4 0C225.1 32.1 219.8 64.3 200.8 83.2C181.8 102.1 149.1 107.8 130.6 130.6C112 153.4 107.6 193.4 88.2 212.9C68.8 232.4 34.4 231.4 0 230.4L0 0Z" fill="#668bcc"></path></g></svg>